<?xml version="1.0" encoding="UTF-8"?>
<svg version="1.1" xmlns="http://www.w3.org/2000/svg" width="658" height="636">
<path d="M0 0 C3.28883326 0.00315092 6.57675636 -0.02033942 9.86547852 -0.0456543 C26.84296499 -0.09763695 42.85005142 1.65098338 59.25024414 6.12817383 C60.21260986 6.38606689 61.17497559 6.64395996 62.16650391 6.90966797 C97.39066966 16.55030474 129.43933702 33.85813591 156.06665039 58.96801758 C158.51077219 61.30195254 158.51077219 61.30195254 160.96508789 63.00708008 C161.51293945 63.43891602 162.06079102 63.87075195 162.62524414 64.31567383 C162.62524414 64.97567383 162.62524414 65.63567383 162.62524414 66.31567383 C163.61524414 66.64567383 164.60524414 66.97567383 165.62524414 67.31567383 C167.20336914 68.88208008 167.20336914 68.88208008 168.87524414 70.87817383 C169.48368164 71.59489258 170.09211914 72.31161133 170.71899414 73.05004883 C171.34805664 73.79770508 171.97711914 74.54536133 172.62524414 75.31567383 C173.87169909 76.75624882 175.12156573 78.19388073 176.37524414 79.62817383 C176.92696289 80.26368164 177.47868164 80.89918945 178.04711914 81.55395508 C178.56790039 82.13532227 179.08868164 82.71668945 179.62524414 83.31567383 C180.02743164 83.90348633 180.42961914 84.49129883 180.84399414 85.09692383 C183.8206077 87.13355415 186.9994867 86.04736827 190.37524414 85.50317383 C245.97774015 78.1125034 304.20227504 96.50342372 348.64379883 129.78637695 C353.63051416 133.63516759 358.38554865 137.745258 363.08227539 141.94018555 C364.53422608 143.23453526 366.00115047 144.51203194 367.46899414 145.78833008 C371.94667097 149.71978428 376.0791742 153.73784606 379.91821289 158.29614258 C381.74651783 160.45914865 383.65123685 162.53850663 385.56274414 164.62817383 C414.18346485 196.88152447 437.11802669 245.29072526 436.86575317 288.93304443 C436.86831645 290.59001213 436.86831645 290.59001213 436.87093151 292.28045392 C436.87420087 295.9468843 436.86326499 299.61312777 436.85229492 303.27954102 C436.85173026 305.92167571 436.85196059 308.56379928 436.85317993 311.20593262 C436.85422416 316.87628835 436.8479962 322.54659775 436.83670425 328.21694183 C436.8203891 336.41510853 436.81523512 344.61325301 436.81272827 352.81143418 C436.80836057 366.11526892 436.79507665 379.41907902 436.77612305 392.72290039 C436.75774025 405.63956581 436.74359551 418.55622451 436.73510742 431.47290039 C436.73431925 432.66894359 436.73431925 432.66894359 436.73351516 433.88914928 C436.73090492 437.88963272 436.72837754 441.89011621 436.72589135 445.89059973 C436.70518766 479.03230903 436.66998744 512.17398812 436.62524414 545.31567383 C433.7328008 543.92608426 431.69148154 542.61529314 429.45336914 540.30395508 C428.87071289 539.7103418 428.28805664 539.11672852 427.68774414 538.50512695 C426.79055664 537.57603516 426.79055664 537.57603516 425.87524414 536.62817383 C422.26863934 532.91384964 418.65562155 529.28921506 414.72680664 525.91333008 C410.1666582 521.98389917 405.96745096 517.73186673 401.75024414 513.44067383 C400.25516253 511.92016566 398.7578777 510.40181972 397.25805664 508.88598633 C396.60724121 508.22356934 395.95642578 507.56115234 395.28588867 506.87866211 C393.69381899 505.23022931 393.69381899 505.23022931 391.62524414 504.31567383 C391.62524414 503.65567383 391.62524414 502.99567383 391.62524414 502.31567383 C391.07255859 502.08895996 390.51987305 501.86224609 389.95043945 501.62866211 C386.93641031 499.92670403 384.85544201 497.76947865 382.42211914 495.30786133 C381.93946594 494.82237823 381.45681274 494.33689514 380.95953369 493.83670044 C379.42665852 492.29267517 377.9009041 490.74182559 376.37524414 489.19067383 C375.33404053 488.13943374 374.29237873 487.08864726 373.25024414 486.03833008 C370.7032495 483.46934379 368.16259237 480.89419221 365.62524414 478.31567383 C361.99416693 480.03436769 359.34648127 482.16377636 356.31274414 484.81567383 C350.04402976 490.16594184 343.37457319 494.72285954 336.4362793 499.15600586 C334.76543442 500.22590518 333.10683903 501.3148703 331.44946289 502.40551758 C306.11368649 518.66290904 277.08765265 528.10790508 247.62524414 533.31567383 C246.49731445 533.53094727 245.36938477 533.7462207 244.20727539 533.96801758 C187.8803148 543.55409659 128.13642704 527.49056787 81.62524414 495.31567383 C70.43594663 487.30412585 60.32331118 478.05912964 50.62524414 468.31567383 C49.72805664 467.44168945 48.83086914 466.56770508 47.90649414 465.66723633 C46.98868164 464.7674707 46.07086914 463.86770508 45.12524414 462.94067383 C43.74852539 461.59875977 43.74852539 461.59875977 42.34399414 460.22973633 C40.15954883 457.88836248 38.93847479 456.14889508 37.38305664 453.46020508 C35.86276073 451.27828785 35.19310176 450.44339454 32.5715332 449.85375977 C30.00493551 449.85057408 27.54867013 450.07351098 25.00024414 450.37817383 C23.09166587 450.5339359 21.18280061 450.6862164 19.27368164 450.83520508 C18.31816406 450.9197998 17.36264648 451.00439453 16.37817383 451.09155273 C-37.11819232 455.44679077 -95.14852904 436.42694239 -136.56225586 402.37817383 C-137.33956055 401.70915039 -138.11686523 401.04012695 -138.91772461 400.35083008 C-141.96089988 397.83017139 -145.14079143 395.58616167 -148.37475586 393.31567383 C-149.00043457 393.95182617 -149.62611328 394.58797852 -150.27075195 395.2434082 C-152.58886841 397.59555759 -154.91138377 399.94317681 -157.23706055 402.2878418 C-158.24375314 403.30460782 -159.24864552 404.32315944 -160.25170898 405.34350586 C-161.69169957 406.80768601 -163.13798842 408.26537588 -164.58569336 409.72192383 C-165.45500488 410.60170898 -166.32431641 411.48149414 -167.2199707 412.38793945 C-169.37475586 414.31567383 -169.37475586 414.31567383 -171.37475586 414.31567383 C-171.70475586 415.30567383 -172.03475586 416.29567383 -172.37475586 417.31567383 C-173.89749146 418.81593323 -173.89749146 418.81593323 -175.85961914 420.42724609 C-180.71028195 424.54578805 -185.15152885 429.00171021 -189.61694336 433.53051758 C-191.35900154 435.28520326 -193.10119282 437.03975683 -194.84350586 438.79418945 C-197.56447793 441.54012683 -200.28381556 444.28764764 -203.00073242 447.03759766 C-205.63933116 449.7062127 -208.28396143 452.36872851 -210.92944336 455.03051758 C-211.74710175 455.86163559 -212.56476013 456.6927536 -213.40719604 457.54905701 C-214.16203278 458.30727249 -214.91686951 459.06548798 -215.69458008 459.84667969 C-216.35884003 460.51839706 -217.02309998 461.19011444 -217.70748901 461.88218689 C-219.37475586 463.31567383 -219.37475586 463.31567383 -221.37475586 463.31567383 C-221.46661012 430.49138264 -221.53694535 397.66712521 -221.57901718 364.84273452 C-221.58401911 360.95440093 -221.58919649 357.06606759 -221.59448242 353.17773438 C-221.59553166 352.40374168 -221.59658091 351.62974899 -221.59766194 350.83230197 C-221.61499664 338.35258906 -221.64649538 325.87295098 -221.68336704 313.39328224 C-221.72097077 300.55735534 -221.74303242 287.72146721 -221.75110984 274.8854875 C-221.75655768 266.98545786 -221.773668 259.08563982 -221.80642173 251.18567543 C-221.83036419 245.09512593 -221.83252741 239.00473273 -221.82718658 232.91414261 C-221.8282742 230.4396797 -221.83605608 227.9652077 -221.85157776 225.49079323 C-222.1431803 176.54431015 -207.00233449 130.88621768 -178.37475586 91.31567383 C-177.27260742 89.78040039 -177.27260742 89.78040039 -176.14819336 88.21411133 C-145.32709256 46.67262764 -99.38000207 17.64264827 -49.37475586 5.31567383 C-48.70234863 5.14986816 -48.02994141 4.9840625 -47.3371582 4.81323242 C-43.36917863 3.85792107 -39.3856818 3.0662765 -35.37475586 2.31567383 C-34.43905762 2.13464111 -33.50335938 1.9536084 -32.53930664 1.76708984 C-21.72313408 -0.05244506 -10.94204581 -0.02186627 0 0 Z M-49.37475586 42.31567383 C-50.59026123 42.67918945 -50.59026123 42.67918945 -51.83032227 43.05004883 C-63.96835869 46.7327548 -75.29096255 51.14647 -86.37475586 57.31567383 C-87.07584473 57.70126465 -87.77693359 58.08685547 -88.49926758 58.48413086 C-102.47862215 66.23168731 -114.77717237 75.28545413 -126.37475586 86.31567383 C-126.9288916 86.83726074 -127.48302734 87.35884766 -128.05395508 87.89624023 C-153.69118219 112.16927198 -171.83657165 143.03941574 -181.68725586 176.94067383 C-181.91751465 177.72595459 -182.14777344 178.51123535 -182.38500977 179.3203125 C-186.34156728 193.64432796 -187.81921082 207.51368037 -187.71533203 222.31005859 C-187.7144831 224.03668198 -187.71496608 225.76330644 -187.71665955 227.4899292 C-187.71751054 232.11903824 -187.70003225 236.74790791 -187.67893767 241.37696195 C-187.66001923 246.23623477 -187.6584086 251.09551475 -187.65486145 255.95481873 C-187.6455851 265.13058188 -187.62103186 274.30623616 -187.59081298 283.48195165 C-187.55713061 293.93920528 -187.54074838 304.39646445 -187.52572668 314.85375893 C-187.49447773 336.34112437 -187.44180425 357.8283922 -187.37475586 379.31567383 C-186.25067274 378.35457269 -185.12692777 377.39307605 -184.00332642 376.43141174 C-183.37750483 375.89602059 -182.75168324 375.36062944 -182.10689735 374.80901432 C-178.90351174 372.0472622 -175.83130431 369.14920591 -172.74975586 366.25317383 C-172.06187988 365.60848145 -171.37400391 364.96378906 -170.6652832 364.29956055 C-165.45615937 359.39297168 -160.36407585 354.38065845 -155.3605957 349.26464844 C-151.57701308 345.41680244 -151.57701308 345.41680244 -149.37475586 344.31567383 C-149.37475586 343.65567383 -149.37475586 342.99567383 -149.37475586 342.31567383 C-144.06363606 346.78722886 -139.12202461 351.51901182 -134.27172852 356.484375 C-121.63443942 369.41894011 -108.71599886 379.84184898 -93.37475586 389.31567383 C-92.59487305 389.83516602 -91.81499023 390.3546582 -91.01147461 390.88989258 C-77.64696242 399.55427437 -61.70378064 405.20403195 -46.37475586 409.31567383 C-45.69493652 409.4996875 -45.01511719 409.68370117 -44.31469727 409.87329102 C4.33887366 422.78897141 56.87406498 414.59695387 100.33911133 389.68383789 C130.75405598 371.48164333 154.84537388 345.38827943 171.62524414 314.31567383 C172.12604492 313.40591797 172.12604492 313.40591797 172.63696289 312.4777832 C195.75875827 270.17641426 199.14560938 218.68875648 186.6159668 172.63842773 C180.33975787 151.5888458 170.54862241 132.01111227 157.62524414 114.31567383 C156.49989258 112.70885742 156.49989258 112.70885742 155.35180664 111.06958008 C152.59291105 107.11250126 152.59291105 107.11250126 149.62524414 103.31567383 C148.96524414 103.31567383 148.30524414 103.31567383 147.62524414 103.31567383 C147.35969727 102.73430664 147.09415039 102.15293945 146.82055664 101.55395508 C143.51978233 95.37309338 137.99375718 90.55780413 132.70336914 86.08520508 C131.31431376 84.9024192 129.94930277 83.69082105 128.60961914 82.45239258 C106.33961261 61.87325692 77.82435203 47.80279165 48.62524414 40.31567383 C46.79799805 39.84194336 46.79799805 39.84194336 44.93383789 39.35864258 C14.48615637 32.19655759 -19.47578019 33.22893395 -49.37475586 42.31567383 Z M203.62524414 120.31567383 C205.53790005 125.16557759 207.4664178 130.00323077 209.55493164 134.78051758 C217.16560861 152.20974049 222.39454047 169.57269137 225.62524414 188.31567383 C225.9481543 190.16612305 225.9481543 190.16612305 226.27758789 192.05395508 C227.75948736 201.43210717 228.21708212 210.84201859 228.62524414 220.31567383 C229.28911133 219.90575195 229.95297852 219.49583008 230.63696289 219.07348633 C231.5199707 218.5346582 232.40297852 217.99583008 233.31274414 217.44067383 C234.18286133 216.90700195 235.05297852 216.37333008 235.94946289 215.82348633 C244.46215023 211.02655594 255.08628959 210.70487943 264.55883789 213.03833008 C266.74300865 213.97332172 268.64261001 215.01097266 270.62524414 216.31567383 C271.2555957 216.68950195 271.88594727 217.06333008 272.53540039 217.44848633 C278.5217134 221.28684414 282.81828393 226.92536563 285.11743164 233.69067383 C287.28887734 244.91537773 286.47847058 255.81277502 280.22290039 265.48364258 C275.10908228 272.14786031 266.91276985 276.81478335 258.62524414 278.31567383 C249.16988352 279.1726976 240.64675879 278.14019952 232.93774414 272.26879883 C230.75712794 270.3471308 228.66231092 268.38794917 226.62524414 266.31567383 C224.87542784 269.48124632 223.97632592 272.51875182 223.15258789 276.03442383 C222.8928418 277.13141602 222.6330957 278.2284082 222.36547852 279.35864258 C222.10057617 280.49946289 221.83567383 281.6402832 221.56274414 282.81567383 C221.0302046 285.07609345 220.49765302 287.33651024 219.96508789 289.59692383 C219.73168701 290.59788086 219.49828613 291.59883789 219.2578125 292.63012695 C218.73186511 294.86301822 218.18162023 297.09016946 217.62524414 299.31567383 C260.19524414 299.31567383 302.76524414 299.31567383 346.62524414 299.31567383 C344.27726783 332.18734214 344.27726783 332.18734214 341.62524414 342.31567383 C341.3996582 343.19223633 341.17407227 344.06879883 340.94165039 344.97192383 C340.24691755 347.45255182 339.4570379 349.87778982 338.62524414 352.31567383 C338.19018555 353.70012695 338.19018555 353.70012695 337.74633789 355.11254883 C332.17949325 371.29953619 322.25997251 385.88646477 310.62524414 398.31567383 C309.52116211 399.52223633 309.52116211 399.52223633 308.39477539 400.75317383 C284.55519721 425.76519028 250.43613619 439.58901316 216.16870117 440.59912109 C187.11500189 440.97747415 157.42419526 432.68775519 134.19165039 414.96801758 C131.57342875 412.95478077 131.57342875 412.95478077 127.62524414 413.31567383 C124.80417866 414.79838971 124.80417866 414.79838971 121.81274414 416.81567383 C107.19424834 426.09355134 90.63053527 435.44785136 73.62524414 439.31567383 C81.97497534 458.81318445 112.42416908 473.85326341 130.62524414 482.31567383 C131.2654248 482.62102051 131.90560547 482.92636719 132.56518555 483.2409668 C177.65930988 504.68328588 230.12066886 505.56165996 276.94506836 489.21264648 C280.21464319 488.01085235 283.42512119 486.69079297 286.62524414 485.31567383 C287.36693848 484.99759766 288.10863281 484.67952148 288.87280273 484.35180664 C316.56777547 472.27360979 338.62786837 453.67786887 359.62524414 432.31567383 C360.21047852 431.77040039 360.79571289 431.22512695 361.39868164 430.66333008 C362.84961063 429.37286657 362.84961063 429.37286657 362.62524414 427.31567383 C372.18503549 435.43996935 381.23660773 444.15371791 390.34008789 452.78051758 C391.11682861 453.51536377 391.89356934 454.25020996 392.69384766 455.00732422 C394.21600092 456.44827019 395.73606762 457.89142393 397.25390625 459.33691406 C397.94105713 459.98732666 398.62820801 460.63773926 399.33618164 461.30786133 C399.94768066 461.88906738 400.55917969 462.47027344 401.18920898 463.0690918 C402.43416784 464.4249299 402.43416784 464.4249299 403.62524414 464.31567383 C403.67206358 442.13145917 403.70728159 419.94725271 403.72886848 397.76299858 C403.73916018 387.46136697 403.75318005 377.15976614 403.77612305 366.8581543 C403.79612162 357.87429632 403.80897587 348.89046066 403.81342113 339.90658104 C403.8160176 335.1542237 403.82207609 330.40193015 403.83670425 325.64959335 C403.85039058 321.16644862 403.8544447 316.68339329 403.8514595 312.20022964 C403.85200476 310.56452192 403.85591584 308.92881085 403.86365509 307.29312134 C403.9254021 293.55628584 402.54397878 280.58704371 399.00024414 267.25317383 C398.74227051 266.27856201 398.48429687 265.3039502 398.21850586 264.29980469 C389.1667385 231.2354875 372.40538995 201.95866964 348.62524414 177.31567383 C347.3703418 175.96602539 347.3703418 175.96602539 346.09008789 174.58911133 C315.625389 142.69996951 268.77418353 121.32391737 224.59619141 120.24145508 C221.39680339 120.21800381 218.19960168 120.22790551 215.00024414 120.25317383 C213.90067383 120.25768555 212.80110352 120.26219727 211.66821289 120.2668457 C208.98716411 120.27850244 206.30623482 120.29486365 203.62524414 120.31567383 Z M203.59025574 330.17443848 C202.909442 331.54230521 202.25258756 332.92247356 201.62524414 334.31567383 C200.99102539 335.36110352 200.35680664 336.4065332 199.70336914 337.48364258 C199.10008789 338.48008789 198.49680664 339.4765332 197.87524414 340.50317383 C191.86714481 350.26068854 185.43723223 359.60198041 178.05883789 368.38989258 C176.42619997 370.18292192 176.42619997 370.18292192 176.62524414 372.31567383 C175.96524414 372.31567383 175.30524414 372.31567383 174.62524414 372.31567383 C173.25590535 373.87160384 171.95579757 375.48864724 170.68774414 377.12817383 C165.74088844 383.32577425 160.31379205 388.79498471 154.62524414 394.31567383 C153.62309592 395.31352098 152.62193838 396.31237896 151.62524414 397.31567383 C175.41437376 413.36518936 204.33730764 419.13009023 232.60473633 413.72583008 C249.69966302 410.10134964 265.18879422 402.41217057 278.62524414 391.31567383 C279.56239258 390.54352539 280.49954102 389.77137695 281.46508789 388.97583008 C298.59361966 374.15352419 310.71634207 352.70302206 314.62524414 330.31567383 C314.62524414 328.99567383 314.62524414 327.67567383 314.62524414 326.31567383 C300.63041268 326.12871043 286.6357751 325.98821219 272.63995075 325.90117645 C266.1412001 325.85940545 259.64328769 325.8027392 253.14501953 325.7121582 C246.87502483 325.62530502 240.60583686 325.57741411 234.33528709 325.55665588 C231.94174685 325.5418611 229.54825134 325.51296968 227.15505409 325.46983337 C223.80470644 325.41184056 220.45770148 325.40375725 217.10693359 325.4074707 C215.61907852 325.36432739 215.61907852 325.36432739 214.10116577 325.3203125 C208.96787305 325.38196859 206.43548479 325.67758857 203.59025574 330.17443848 Z " fill="#388DEF" transform="translate(221.374755859375,42.684326171875)"/>
<path d="M0 0 C4.61862787 2.57577324 8.30640263 4.9192079 10 10 C10.13087452 12.35283303 10.22999161 14.70747479 10.3125 17.0625 C11.7758027 45.22703911 24.01733249 71.14671304 44.32421875 90.6640625 C58.48049514 103.02238846 74.90184128 110.49370443 93 115 C93.928125 115.24621094 94.85625 115.49242187 95.8125 115.74609375 C120.83054508 121.41424459 148.63108714 114.39076824 170 101 C193.7015796 85.2203286 209.47921408 62.30820863 215.21972656 34.3112793 C216.40011245 28.30766602 217.1589525 22.5030451 217.4375 16.375 C217.74596169 11.15487905 218.21664701 7.88560578 222 4 C225.23169681 1.27101158 227.24237769 0.11019961 231.4375 -0.5 C236.60073906 0.22466513 240.32109391 1.9033196 243.6796875 6.09765625 C245.48181326 10.05913388 245.45055581 13.44635829 245.375 17.75 C245.36484863 18.58909912 245.35469727 19.42819824 245.34423828 20.29272461 C244.62225249 50.02566658 231.77213333 77.39355859 213 100 C212.55914062 100.56460938 212.11828125 101.12921875 211.6640625 101.7109375 C192.84618485 125.58059438 160.12145836 140.55805369 130.5625 144.25 C97.27942864 147.8255571 62.7983349 140.09664824 36.00390625 119.43359375 C31.49841866 115.78350432 27.18556379 112.01232026 23 108 C21.77023438 106.86498047 21.77023438 106.86498047 20.515625 105.70703125 C-2.77281639 83.53961732 -16.38456867 51.22357406 -17.3293457 19.25463867 C-17.34441162 18.51060791 -17.35947754 17.76657715 -17.375 17 C-17.40102295 16.29399658 -17.4270459 15.58799316 -17.45385742 14.8605957 C-17.47148666 9.76088171 -16.21485419 6.90916934 -13 3 C-8.634442 0.089628 -5.20499921 -0.6506249 0 0 Z " fill="#388DEF" transform="translate(111,245)"/>
<path d="M0 0 C9.29843493 6.84837112 13.07752247 14.92117629 14.8359375 26.22265625 C15.34078273 34.91546006 11.84970613 44.32130032 6.359375 50.99609375 C-2.31255518 59.2933109 -11.53008784 62.28826182 -23.32421875 62.05859375 C-32.47992615 61.35773158 -39.30470319 57.3947726 -45.48828125 50.703125 C-53.46095742 41.00888563 -54.64953672 32.10257989 -53.5390625 19.8125 C-52.68566129 16.41335959 -51.42901771 13.75046776 -49.5390625 10.8125 C-49.11496094 10.11769531 -48.69085938 9.42289063 -48.25390625 8.70703125 C-43.08392689 1.03126803 -35.90047925 -3.39829035 -27.015625 -5.72265625 C-17.06840906 -7.58972044 -8.44289634 -5.40345366 0 0 Z " fill="#388DEF" transform="translate(191.5390625,165.1875)"/>
<path d="M0 0 C3.7480044 3.26953575 5.21505766 5.6003073 6 10.5 C6.23718688 14.78373875 5.51584442 17.42912406 3 21 C1.06557686 22.7548498 -0.96766021 24.35647963 -3 26 C-1.7934375 26.02578125 -0.586875 26.0515625 0.65625 26.078125 C2.27086738 26.13444886 3.88544933 26.1917952 5.5 26.25 C6.29148437 26.26417969 7.08296875 26.27835938 7.8984375 26.29296875 C13.61914227 26.52742386 18.24283246 27.70169717 23 31 C26.36572068 35.62786594 26.52581801 39.47891094 26 45 C24.11362507 49.61113871 21.28256264 51.5856056 17 54 C13.43359375 54.50793457 13.43359375 54.50793457 9.4375 54.51757812 C8.70499023 54.5245874 7.97248047 54.53159668 7.21777344 54.53881836 C4.81145618 54.55633397 2.40632791 54.54479954 0 54.53125 C-1.68099186 54.53394679 -3.36198221 54.53783077 -5.04296875 54.54284668 C-8.56004743 54.54873298 -12.0767188 54.54020709 -15.59375 54.52148438 C-20.09302189 54.49869501 -24.59133927 54.5118228 -29.09057617 54.53577423 C-32.55996847 54.55025591 -36.02913594 54.54561544 -39.49853516 54.53526306 C-41.15706496 54.53260231 -42.81561544 54.53584257 -44.47412109 54.54518127 C-46.79579421 54.55538646 -49.11594011 54.53979279 -51.4375 54.51757812 C-52.75621094 54.51439575 -54.07492188 54.51121338 -55.43359375 54.50793457 C-60.44995265 53.7934949 -63.55573959 51.63682846 -66.875 47.875 C-68.84731239 42.83464612 -69.07556783 37.46658489 -66.89453125 32.46484375 C-64.48657334 29.33201603 -61.66321529 27.5405272 -58.3125 25.5625 C-57.28527832 24.93831177 -57.28527832 24.93831177 -56.23730469 24.30151367 C-53.83450593 22.8508515 -51.41911921 21.42327793 -49 20 C-48.04077637 19.43474609 -47.08155273 18.86949219 -46.09326172 18.28710938 C-40.06395853 14.74192903 -34.02275767 11.2177958 -27.96289062 7.72509766 C-25.8891633 6.5177017 -23.8261422 5.29181507 -21.77148438 4.05224609 C-20.71767578 3.42012207 -19.66386719 2.78799805 -18.578125 2.13671875 C-17.6284082 1.56010498 -16.67869141 0.98349121 -15.70019531 0.3894043 C-10.21776979 -2.43161593 -5.5920184 -2.44015348 0 0 Z " fill="#388EF0" transform="translate(289,170)"/>
</svg>
